<svg width="24" height="24" viewBox="0 0 24 24" fill="none" xmlns="http://www.w3.org/2000/svg">
<g id="fluent:receipt-20-filled">
<path id="Vector" d="M3.59961 6.0001C3.59961 5.36358 3.85247 4.75313 4.30255 4.30304C4.75264 3.85295 5.36309 3.6001 5.99961 3.6001H14.3996C15.0361 3.6001 15.6466 3.85295 16.0967 4.30304C16.5468 4.75313 16.7996 5.36358 16.7996 6.0001V14.4001H20.3996V16.8001C20.3996 17.7549 20.0203 18.6706 19.3452 19.3457C18.6701 20.0208 17.7544 20.4001 16.7996 20.4001H7.19961C6.24483 20.4001 5.32916 20.0208 4.65403 19.3457C3.97889 18.6706 3.59961 17.7549 3.59961 16.8001V6.0001ZM16.7996 19.2001C17.4361 19.2001 18.0466 18.9472 18.4967 18.4972C18.9468 18.0471 19.1996 17.4366 19.1996 16.8001V15.6001H16.7996V19.2001ZM7.79961 7.2001C7.64048 7.2001 7.48787 7.26331 7.37535 7.37583C7.26282 7.48836 7.19961 7.64097 7.19961 7.8001C7.19961 7.95923 7.26282 8.11184 7.37535 8.22436C7.48787 8.33688 7.64048 8.4001 7.79961 8.4001H12.5996C12.7587 8.4001 12.9114 8.33688 13.0239 8.22436C13.1364 8.11184 13.1996 7.95923 13.1996 7.8001C13.1996 7.64097 13.1364 7.48836 13.0239 7.37583C12.9114 7.26331 12.7587 7.2001 12.5996 7.2001H7.79961ZM7.79961 10.8001C7.64048 10.8001 7.48787 10.8633 7.37535 10.9758C7.26282 11.0884 7.19961 11.241 7.19961 11.4001C7.19961 11.5592 7.26282 11.7118 7.37535 11.8244C7.48787 11.9369 7.64048 12.0001 7.79961 12.0001H12.5996C12.7587 12.0001 12.9114 11.9369 13.0239 11.8244C13.1364 11.7118 13.1996 11.5592 13.1996 11.4001C13.1996 11.241 13.1364 11.0884 13.0239 10.9758C12.9114 10.8633 12.7587 10.8001 12.5996 10.8001H7.79961ZM7.79961 14.4001C7.64048 14.4001 7.48787 14.4633 7.37535 14.5758C7.26282 14.6884 7.19961 14.841 7.19961 15.0001C7.19961 15.1592 7.26282 15.3118 7.37535 15.4244C7.48787 15.5369 7.64048 15.6001 7.79961 15.6001H10.1996C10.3587 15.6001 10.5114 15.5369 10.6239 15.4244C10.7364 15.3118 10.7996 15.1592 10.7996 15.0001C10.7996 14.841 10.7364 14.6884 10.6239 14.5758C10.5114 14.4633 10.3587 14.4001 10.1996 14.4001H7.79961Z" fill="#344054"/>
</g>
</svg>
