<svg width="48" height="48" viewBox="0 0 48 48" fill="none" xmlns="http://www.w3.org/2000/svg">
<rect width="48" height="48" rx="17" fill="white"/>
<path d="M23.9488 26.54C20.4988 26.54 17.5879 27.1038 17.5879 29.2795C17.5879 31.4562 20.5176 32.0001 23.9488 32.0001C27.3988 32.0001 30.3098 31.4364 30.3098 29.2606C30.3098 27.084 27.38 26.54 23.9488 26.54Z" fill="#00B3D1"/>
<path opacity="0.4" d="M23.9485 24.467C26.2847 24.467 28.1578 22.5831 28.1578 20.2335C28.1578 17.8831 26.2847 16 23.9485 16C21.6124 16 19.7393 17.8831 19.7393 20.2335C19.7393 22.5831 21.6124 24.467 23.9485 24.467Z" fill="#00B3D1"/>
<path opacity="0.4" d="M33.0876 21.2192C33.692 18.8418 31.92 16.7065 29.6636 16.7065C29.4182 16.7065 29.1836 16.7336 28.9544 16.7795C28.924 16.7867 28.8899 16.802 28.872 16.829C28.8514 16.8632 28.8666 16.9092 28.889 16.9389C29.5669 17.8953 29.9564 19.0597 29.9564 20.3097C29.9564 21.5074 29.5991 22.6241 28.9723 23.5508C28.9078 23.6462 28.9651 23.775 29.0789 23.7948C29.2365 23.8227 29.3976 23.8371 29.5624 23.8416C31.2054 23.8849 32.6802 22.8213 33.0876 21.2192Z" fill="#00B3D1"/>
<path d="M34.8094 26.817C34.5086 26.1722 33.7824 25.73 32.6783 25.513C32.1572 25.3851 30.747 25.205 29.4352 25.2293C29.4155 25.232 29.4048 25.2455 29.403 25.2545C29.4003 25.2671 29.4057 25.2887 29.4316 25.3022C30.0378 25.6039 32.3811 26.916 32.0865 29.6834C32.074 29.8032 32.1698 29.9068 32.2888 29.8888C32.8655 29.8059 34.3492 29.4853 34.8094 28.4866C35.0637 27.9589 35.0637 27.3456 34.8094 26.817Z" fill="#00B3D1"/>
<path opacity="0.4" d="M19.0451 16.78C18.8167 16.7331 18.5813 16.707 18.3359 16.707C16.0795 16.707 14.3075 18.8422 14.9128 21.2197C15.3193 22.8218 16.794 23.8854 18.4371 23.8421C18.6019 23.8376 18.7639 23.8223 18.9206 23.7953C19.0343 23.7755 19.0916 23.6467 19.0272 23.5513C18.4004 22.6237 18.0431 21.5079 18.0431 20.3102C18.0431 19.0593 18.4335 17.8949 19.1113 16.9394C19.1328 16.9097 19.1489 16.8637 19.1275 16.8295C19.1095 16.8016 19.0764 16.7872 19.0451 16.78Z" fill="#00B3D1"/>
<path d="M15.3216 25.5127C14.2175 25.7297 13.4922 26.1719 13.1914 26.8167C12.9362 27.3453 12.9362 27.9586 13.1914 28.4872C13.6516 29.4851 15.1353 29.8066 15.712 29.8885C15.831 29.9065 15.926 29.8038 15.9134 29.6832C15.6188 26.9167 17.9621 25.6046 18.5692 25.3029C18.5943 25.2885 18.5996 25.2677 18.5969 25.2542C18.5951 25.2452 18.5853 25.2317 18.5656 25.2299C17.2529 25.2047 15.8436 25.3848 15.3216 25.5127Z" fill="#00B3D1"/>
</svg>
