<svg width="24" height="24" viewBox="0 0 24 24" fill="none" xmlns="http://www.w3.org/2000/svg">
<g id="material-symbols-light:payments">
<path id="Vector" d="M4.30838 18.615C3.86372 18.615 3.48338 18.457 3.16738 18.141C2.85072 17.8243 2.69238 17.444 2.69238 17V8.19196H3.69238V17C3.69238 17.1533 3.75672 17.2943 3.88538 17.423C4.01338 17.551 4.15438 17.615 4.30838 17.615H18.3464V18.615H4.30838ZM7.30838 15.615C6.86372 15.615 6.48338 15.457 6.16738 15.141C5.85072 14.8243 5.69238 14.444 5.69238 14V6.84596C5.69238 6.40196 5.85072 6.02196 6.16738 5.70596C6.48338 5.38929 6.86338 5.23096 7.30738 5.23096H19.6924C20.137 5.23096 20.5174 5.38896 20.8334 5.70496C21.1494 6.02096 21.3077 6.40129 21.3084 6.84596V14C21.3084 14.444 21.1501 14.824 20.8334 15.14C20.5174 15.4566 20.1374 15.615 19.6934 15.615H7.30838ZM8.30838 14.615C8.30838 14.1683 8.15005 13.7873 7.83338 13.472C7.51805 13.1573 7.13805 13 6.69338 13V14C6.69338 14.1666 6.75405 14.311 6.87538 14.433C6.99738 14.5543 7.14172 14.615 7.30838 14.615H8.30838ZM18.6924 14.615H19.6924C19.859 14.615 20.0034 14.5543 20.1254 14.433C20.2474 14.311 20.3084 14.1666 20.3084 14V13C19.861 13 19.4797 13.1583 19.1644 13.475C18.8497 13.791 18.6924 14.171 18.6924 14.615ZM13.5004 12.423C14.0644 12.423 14.5387 12.2306 14.9234 11.846C15.3081 11.4613 15.5004 10.987 15.5004 10.423C15.5004 9.85896 15.3081 9.38462 14.9234 8.99996C14.5387 8.61529 14.0644 8.42296 13.5004 8.42296C12.9364 8.42296 12.462 8.61529 12.0774 8.99996C11.6927 9.38462 11.5004 9.85896 11.5004 10.423C11.5004 10.987 11.6927 11.4613 12.0774 11.846C12.462 12.2306 12.9364 12.423 13.5004 12.423ZM6.69238 7.84596C7.13972 7.84596 7.52105 7.68796 7.83638 7.37196C8.15105 7.05529 8.30838 6.67496 8.30838 6.23096H7.30838C7.14172 6.23096 6.99738 6.29162 6.87538 6.41296C6.75338 6.53496 6.69238 6.67929 6.69238 6.84596V7.84596ZM20.3084 7.84596V6.84596C20.3084 6.67929 20.2474 6.53496 20.1254 6.41296C20.0034 6.29162 19.859 6.23096 19.6924 6.23096H18.6924C18.6924 6.67762 18.8507 7.05862 19.1674 7.37396C19.4834 7.68862 19.8634 7.84596 20.3074 7.84596" fill="#344054"/>
</g>
</svg>
