<svg width="48" height="48" viewBox="0 0 48 48" fill="none" xmlns="http://www.w3.org/2000/svg">
<rect width="48" height="48" rx="17" fill="white"/>
<path d="M24 14C21.38 14 19.25 16.13 19.25 18.75C19.25 21.32 21.26 23.4 23.88 23.49C23.96 23.48 24.04 23.48 24.1 23.49C24.12 23.49 24.13 23.49 24.15 23.49C24.16 23.49 24.16 23.49 24.17 23.49C26.73 23.4 28.74 21.32 28.75 18.75C28.75 16.13 26.62 14 24 14Z" fill="#00B3D1"/>
<path opacity="0.4" d="M29.08 26.1499C26.29 24.2899 21.74 24.2899 18.93 26.1499C17.66 26.9999 16.96 28.1499 16.96 29.3799C16.96 30.6099 17.66 31.7499 18.92 32.5899C20.32 33.5299 22.16 33.9999 24 33.9999C25.84 33.9999 27.68 33.5299 29.08 32.5899C30.34 31.7399 31.04 30.5999 31.04 29.3599C31.03 28.1299 30.34 26.9899 29.08 26.1499Z" fill="#00B3D1"/>
<path d="M26 28.6299H24.75V27.3799C24.75 26.9699 24.41 26.6299 24 26.6299C23.59 26.6299 23.25 26.9699 23.25 27.3799V28.6299H22C21.59 28.6299 21.25 28.9699 21.25 29.3799C21.25 29.7899 21.59 30.1299 22 30.1299H23.25V31.3799C23.25 31.7899 23.59 32.1299 24 32.1299C24.41 32.1299 24.75 31.7899 24.75 31.3799V30.1299H26C26.41 30.1299 26.75 29.7899 26.75 29.3799C26.75 28.9699 26.41 28.6299 26 28.6299Z" fill="#00B3D1"/>
</svg>
